{"version":2,"width":100,"height":26,"timestamp":1689338643,"env":{"SHELL":"","TERM":"xterm"}}
[ 0.00000, "o", "" ]
[ 0.08821, "o", "\u001b[19491001\u001b[1;35m> \u001b[20210325\u001b[0m" ]
[ 0.99850, "o", "# " ]
[ 1.10247, "o", "使" ]
[ 1.25809, "o", "用" ]
[ 1.30982, "o", " " ]
[ 1.36220, "o", "`" ]
[ 1.41421, "o", "x" ]
[ 1.46656, "o", " " ]
[ 1.51833, "o", "f" ]
[ 1.57051, "o", "f" ]
[ 1.62291, "o", "m" ]
[ 1.67503, "o", "p" ]
[ 1.72714, "o", "e" ]
[ 1.77913, "o", "g" ]
[ 1.83108, "o", "`" ]
[ 1.88278, "o", " " ]
[ 2.03840, "o", "命" ]
[ 2.19460, "o", "令" ]
[ 2.35008, "o", "格" ]
[ 2.50581, "o", "式" ]
[ 2.66226, "o", "能" ]
[ 2.81785, "o", "快" ]
[ 2.97385, "o", "捷" ]
[ 3.12994, "o", "地" ]
[ 3.28593, "o", "使" ]
[ 3.44187, "o", "用" ]
[ 3.49419, "o", " " ]
[ 3.54605, "o", "`" ]
[ 3.59837, "o", "f" ]
[ 3.65030, "o", "f" ]
[ 3.70223, "o", "m" ]
[ 3.75373, "o", "p" ]
[ 3.80628, "o", "e" ]
[ 3.85838, "o", "g" ]
[ 3.91098, "o", "`" ]
[ 3.96361, "o", " " ]
[ 4.11830, "o", "命" ]
[ 4.27350, "o", "令" ]
[ 4.32601, "o", "\r\n" ]
[ 4.32603, "o", "\u001b[?2004l\r" ]
[ 4.32615, "o", "\u001b[?2004h\r\n\u001b[19491001\u001b[1;35m> \u001b[20210325\u001b[0m" ]
[ 5.83060, "o", "x" ]
[ 5.88248, "o", " " ]
[ 5.93455, "o", "f" ]
[ 5.98691, "o", "f" ]
[ 6.03902, "o", "m" ]
[ 6.09087, "o", "p" ]
[ 6.14294, "o", "e" ]
[ 6.19497, "o", "g" ]
[ 6.24675, "o", " " ]
[ 6.29850, "o", "-" ]
[ 6.35006, "o", "v" ]
[ 6.40240, "o", "e" ]
[ 6.45455, "o", "r" ]
[ 6.50642, "o", "s" ]
[ 6.55845, "o", "i" ]
[ 6.61027, "o", "o" ]
[ 6.66268, "o", "n" ]
[ 6.91665, "o", "\r\n\u001b[?2004l\r" ]
[ 6.99984, "o", "ffmpeg version 6.0-static https://johnvansickle.com/ffmpeg/  Copyright (c) 2000-2023 the FFmpeg developers\r\nbuilt with gcc 8 (Debian 8.3.0-6)\r\nconfiguration: --enable-gpl --enable-version3 --enable-static --disable-debug --disable-ffplay --disable-indev=sndio --disable-outdev=sndio --cc=gcc --enable-fontconfig --enable-frei0r --enable-gnutls --enable-gmp --enable-libgme --enable-gray --enable-libaom --enable-libfribidi --enable-libass --enable-libvmaf --enable-libfreetype --enable-libmp3lame --enable-libopencore-amrnb --enable-libopencore-amrwb --enable-libopenjpeg --enable-librubberband --enable-libsoxr --enable-libspeex --enable-libsrt --enable-libvorbis --enable-libopus --enable-libtheora --enable-libvidstab --enable-libvo-amrwbenc --enable-libvpx --enable-libwebp --enable-libx264 --enable-libx265 --enable-libxml2 --enable-libdav1d --enable-libxvid --enable-libzvbi --enable-libzimg\r\nlibavutil      58.  2.100 / 58.  2.100\r\nlibavcodec     60.  3.100 / 60.  3.100\r\nlibavformat    60.  3.100 / 60.  3.100\r\nlibavdevice    60.  1.100 / 60.  1.100\r\nlibavfilter     9.  3.100 /  9.  3.100\r\nlibswscale      7.  1.100 /  7.  1.100\r\nlibswresample   4. 10.100 /  4. 10.100\r\nlibpostproc    57.  1.100 / 57.  1.100\r\n" ]
[ 7.00034, "o", "\u001b[?2004h\r\n\u001b[19491001\u001b[1;35m> \u001b[20210325\u001b[0m" ]
[ 8.42050, "o", "# " ]
[ 8.52466, "o", "使" ]
[ 8.68057, "o", "用" ]
[ 8.73239, "o", " " ]
[ 8.78416, "o", "`" ]
[ 8.83578, "o", "x" ]
[ 8.88817, "o", " " ]
[ 8.94053, "o", "e" ]
[ 8.99256, "o", "n" ]
[ 9.04481, "o", "v" ]
[ 9.09659, "o", " " ]
[ 9.14864, "o", "u" ]
[ 9.20100, "o", "s" ]
[ 9.25337, "o", "e" ]
[ 9.30533, "o", "`" ]
[ 9.35721, "o", " " ]
[ 9.51309, "o", "能" ]
[ 9.66820, "o", "自" ]
[ 9.82412, "o", "动" ]
[ 9.97991, "o", "安" ]
[ 10.13617, "o", "装" ]
[ 10.29317, "o", "并" ]
[ 10.44861, "o", "配" ]
[ 10.60410, "o", "置" ]
[ 10.76133, "o", "好" ]
[ 10.91780, "o", "相" ]
[ 11.07420, "o", "应" ]
[ 11.23042, "o", "的" ]
[ 11.38662, "o", "全" ]
[ 11.54254, "o", "局" ]
[ 11.69836, "o", "环" ]
[ 11.85415, "o", "境" ]
[ 12.01070, "o", "变" ]
[ 12.16648, "o", "量" ]
[ 12.21873, "o", "\r\n\u001b[?2004l\r\u001b[?2004h\r\n\u001b[19491001\u001b[1;35m> \u001b[20210325\u001b[0m" ]
[ 13.72328, "o", "x" ]
[ 13.77530, "o", " " ]
[ 13.82773, "o", "e" ]
[ 13.88038, "o", "n" ]
[ 13.93211, "o", "v" ]
[ 13.98377, "o", " " ]
[ 14.03603, "o", "u" ]
[ 14.08827, "o", "s" ]
[ 14.14024, "o", "e" ]
[ 14.19224, "o", " " ]
[ 14.24451, "o", "f" ]
[ 14.29655, "o", "f" ]
[ 14.34824, "o", "m" ]
[ 14.39979, "o", "p" ]
[ 14.45174, "o", "e" ]
[ 14.50322, "o", "g" ]
[ 14.75781, "o", "\r\n\u001b[?2004l\r" ]
[ 15.08831, "o", "- \u001b[32mI\u001b[0m\u001b[32m|pkg: \u001b[0mSuccessfully set link from path \u001b[0m\r\n" ]
[ 15.11623, "o", "- \u001b[32mI\u001b[0m\u001b[32m|env: \u001b[0mSuccessfully set ffmpeg=v6.0 in the current environment.\u001b[0m\r\n" ]
[ 15.17766, "o", "- \u001b[32mI\u001b[0m\u001b[32m|env: \u001b[0mConfig file updated to /root/.x-cmd.root/local/data/env/version\u001b[0m\r\n" ]
[ 15.17786, "o", "\u001b[?2004h\r\n\u001b[19491001\u001b[1;35m> \u001b[20210325\u001b[0m" ]
[ 18.26227, "o", "# " ]
[ 18.36589, "o", "转" ]
[ 18.52191, "o", "换" ]
[ 18.67776, "o", "视" ]
[ 18.83315, "o", "频" ]
[ 18.98890, "o", "格" ]
[ 19.14531, "o", "式" ]
[ 19.19755, "o", "\r\n\u001b[?2004l\r\u001b[?2004h\r\n\u001b[19491001\u001b[1;35m> \u001b[20210325\u001b[0m" ]
[ 20.70206, "o", "f" ]
[ 20.75453, "o", "f" ]
[ 20.80689, "o", "m" ]
[ 20.85924, "o", "p" ]
[ 20.91107, "o", "e" ]
[ 20.96326, "o", "g" ]
[ 21.01503, "o", " " ]
[ 21.06703, "o", "-" ]
[ 21.11902, "o", "i" ]
[ 21.17106, "o", " " ]
[ 21.22353, "o", "t" ]
[ 21.27534, "o", "e" ]
[ 21.32727, "o", "s" ]
[ 21.37894, "o", "t" ]
[ 21.43135, "o", "." ]
[ 21.48284, "o", "m" ]
[ 21.53529, "o", "p" ]
[ 21.58773, "o", "4" ]
[ 21.64033, "o", " " ]
[ 21.69243, "o", "t" ]
[ 21.74443, "o", "e" ]
[ 21.79689, "o", "s" ]
[ 21.84869, "o", "t" ]
[ 21.90108, "o", "." ]
[ 21.95300, "o", "a" ]
[ 22.00492, "o", "v" ]
[ 22.05694, "o", "i" ]
[ 23.11049, "o", "\r\n\u001b[?2004l\r" ]
[ 23.11310, "o", "ffmpeg version 6.0-static https://johnvansickle.com/ffmpeg/  Copyright (c) 2000-2023 the FFmpeg developers\r\n  built with gcc 8 (Debian 8.3.0-6)\r\n  configuration: --enable-gpl --enable-version3 --enable-static --disable-debug --disable-ffplay --disable-indev=sndio --disable-outdev=sndio --cc=gcc --enable-fontconfig --enable-frei0r --enable-gnutls --enable-gmp --enable-libgme --enable-gray --enable-libaom --enable-libfribidi --enable-libass --enable-libvmaf --enable-libfreetype --enable-libmp3lame --enable-libopencore-amrnb --enable-libopencore-amrwb --enable-libopenjpeg --enable-librubberband --enable-libsoxr --enable-libspeex --enable-libsrt --enable-libvorbis --enable-libopus --enable-libtheora --enable-libvidstab --enable-libvo-amrwbenc --enable-libvpx --enable-libwebp --enable-libx264 --enable-libx265 --enable-libxml2 --enable-libdav1d --enable-libxvid --enable-libzvbi --enable-libzimg\r\n  libavutil      58.  2.100 / 58.  2.100\r\n  libavcodec     60.  3.100 / 60.  3.100\r\n  libavformat    60.  3.100 / 60.  3.100\r\n  libavdevice    60.  1.100 / 60.  1.100\r\n  libavfilter     9.  3.100 /  9.  3.100\r\n  libswscale      7.  1.100 /  7.  1.100\r\n  libswresample   4. 10.100 /  4. 10.100\r\n  libpostproc    57.  1.100 / 57.  1.100\r\n" ]
[ 23.11780, "o", "Input #0, mov,mp4,m4a,3gp,3g2,mj2, from 'test.mp4':\r\n  Metadata:\r\n    major_brand     : isom" ]
[ 23.11781, "o", "\r\n    minor_version   : 512\r\n    compatible_brands: isomiso2avc1mp41\r\n" ]
[ 23.11782, "o", "    creation_time   : 1970-01-01T00:00:00.000000Z\r\n    title           : " ]
[ 23.11782, "o", "Sintel Trailer" ]
[ 23.11791, "o", "\r\n    artist          : Durian Open Movie Team\r\n    encoder         : Lavf52.62.0\r\n    copyright       : (c) copyright Blender Foundation | durian.blender.org\r\n    description     : Trailer for the Sintel open movie project\r\n  Duration: 00:00:52.21, start: 0.000000, bitrate: 669 kb/s\r\n" ]
[ 23.11793, "o", "  Stream #0:0[0x1](und): Video: h264 (High) (avc1 / 0x31637661), yuv420p(progressive), 854x480, 537 kb/s, " ]
[ 23.11801, "o", "24 fps, 24 tbr, 24 tbn (default)\r\n    Metadata:\r\n      creation_time   : 1970-01-01T00:00:00.000000Z\r\n      handler_name    : VideoHandler\r\n      vendor_id       : [0][0][0][0]\r\n  Stream #0:1[0x2](und): Audio: aac (LC) (mp4a / 0x6134706D), 48000 Hz, stereo, fltp, 126 kb/s" ]
[ 23.11805, "o", " (default)" ]
[ 23.11808, "o", "\r\n    Metadata:\r\n      creation_time   : 1970-01-01T00:00:00.000000Z\r\n      handler_name    : SoundHandler\r\n      vendor_id       : [0][0][0][0]\r\n" ]
[ 23.12173, "o", "Stream mapping:\r\n  Stream #0:0 -> #0:0 (h264 (native) -> mpeg4 (native))\r\n  Stream #0:1 -> #0:1 (aac (native) -> mp3 (libmp3lame))\r\nPress [q] to stop, [?] for help\r\n" ]
[ 23.13608, "o", "Output #0, avi, to 'test.avi':\r\n  Metadata:\r\n    major_brand     : isom\r\n    minor_version   : 512\r\n    compatible_brands: isomiso2avc1mp41\r\n    description     : Trailer for the Sintel open movie project\r\n    INAM            : Sintel Trailer\r\n    IART            : Durian Open Movie Team\r\n    ICOP            : (c) copyright Blender Foundation | durian.blender.org\r\n    ISFT            : Lavf60.3.100\r\n" ]
[ 23.13612, "o", "  Stream #0:0(und): Video: mpeg4 (FMP4 / 0x34504D46), yuv420p(progressive), 854x480, q=2-31, 200 kb/s, 24 fps, 24 tbn (default)\r\n    Metadata:\r\n      creation_time   : 1970-01-01T00:00:00.000000Z\r\n      handler_name    : VideoHandler\r\n      vendor_id       : [0][0][0][0]\r\n" ]
[ 23.13613, "o", "      encoder         : Lavc60.3.100 mpeg4\r\n    Side data:\r\n      cpb: bitrate max/min/avg: 0/0/200000 buffer size: 0 vbv_delay: N/A\r\n" ]
[ 23.13622, "o", "  Stream #0:1(und): Audio: mp3 (U[0][0][0] / 0x0055), 48000 Hz, stereo, fltp (default)\r\n    Metadata:\r\n      creation_time   : 1970-01-01T00:00:00.000000Z\r\n      handler_name    : SoundHandler\r\n      vendor_id       : [0][0][0][0]\r\n      encoder         : Lavc60.3.100 libmp3lame\r\n" ]
[ 23.13989, "o", "frame=    0 fps=0.0 q=1.6 size=      10kB time=00:00:00.23 bitrate= 337.0kbits/s speed=24.6x    \r" ]
[ 23.63186, "o", "frame=  291 fps=0.0 q=24.8 size=     768kB time=00:00:12.33 bitrate= 510.1kbits/s speed=24.2x    \r" ]
[ 24.13240, "o", "frame=  571 fps=565 q=31.0 size=    1280kB time=00:00:23.97 bitrate= 437.4kbits/s speed=23.7x    \r" ]
[ 24.63291, "o", "frame=  854 fps=565 q=31.0 size=    2304kB time=00:00:35.80 bitrate= 527.1kbits/s speed=23.7x    \r" ]
[ 25.13396, "o", "frame= 1139 fps=566 q=31.0 size=    2816kB time=00:00:47.68 bitrate= 483.8kbits/s speed=23.7x    \r" ]
[ 25.30057, "o", "frame= 1253 fps=575 q=31.0 Lsize=    3239kB time=00:00:52.16 bitrate= 508.7kbits/s speed=23.9x    \r\nvideo:2337kB audio:812kB subtitle:0kB other streams:0kB global headers:0kB muxing overhead: 2.878306%\r\n" ]
[ 25.30556, "o", "\u001b[?2004h\r\n\u001b[19491001\u001b[1;35m> \u001b[20210325\u001b[0m" ]
[ 29.61434, "o", "# " ]
[ 29.71874, "o", "从" ]
[ 29.87461, "o", "视" ]
[ 30.03053, "o", "频" ]
[ 30.18673, "o", "中" ]
[ 30.34197, "o", "提" ]
[ 30.49722, "o", "取" ]
[ 30.65318, "o", "音" ]
[ 30.80890, "o", "频" ]
[ 30.86159, "o", "\r\n\u001b[?2004l\r\u001b[?2004h\r\n\u001b[19491001\u001b[1;35m> \u001b[20210325\u001b[0m" ]
[ 32.36530, "o", "f" ]
[ 32.41702, "o", "f" ]
[ 32.46908, "o", "m" ]
[ 32.52119, "o", "p" ]
[ 32.57336, "o", "e" ]
[ 32.62598, "o", "g" ]
[ 32.67785, "o", " " ]
[ 32.72965, "o", "-" ]
[ 32.78190, "o", "i" ]
[ 32.83378, "o", " " ]
[ 32.88566, "o", "t" ]
[ 32.93802, "o", "e" ]
[ 32.98966, "o", "s" ]
[ 33.04155, "o", "t" ]
[ 33.09385, "o", "." ]
[ 33.14626, "o", "m" ]
[ 33.19792, "o", "p" ]
[ 33.25010, "o", "4" ]
[ 33.30195, "o", " " ]
[ 33.35381, "o", "-" ]
[ 33.40560, "o", "a" ]
[ 33.45738, "o", "c" ]
[ 33.50931, "o", "o" ]
[ 33.56144, "o", "d" ]
[ 33.61373, "o", "e" ]
[ 33.66571, "o", "c" ]
[ 33.71770, "o", " " ]
[ 33.76967, "o", "l" ]
[ 33.82181, "o", "i" ]
[ 33.87339, "o", "b" ]
[ 33.92551, "o", "m" ]
[ 33.97757, "o", "p" ]
[ 34.02992, "o", "3" ]
[ 34.08180, "o", "l" ]
[ 34.13367, "o", "a" ]
[ 34.18555, "o", "m" ]
[ 34.23754, "o", "e" ]
[ 34.28938, "o", " " ]
[ 34.34127, "o", "-" ]
[ 34.39353, "o", "v" ]
[ 34.44613, "o", "n" ]
[ 34.49775, "o", " " ]
[ 34.54943, "o", "t" ]
[ 34.60092, "o", "e" ]
[ 34.65300, "o", "s" ]
[ 34.70522, "o", "t" ]
[ 34.75762, "o", "." ]
[ 34.81025, "o", "m" ]
[ 34.86234, "o", "p" ]
[ 34.91465, "o", "3" ]
[ 36.46807, "o", "\r\n\u001b[?2004l\r" ]
[ 36.47151, "o", "ffmpeg version 6.0-static https://johnvansickle.com/ffmpeg/  Copyright (c) 2000-2023 the FFmpeg developers\r\n  built with gcc 8 (Debian 8.3.0-6)\r\n  configuration: --enable-gpl --enable-version3 --enable-static --disable-debug --disable-ffplay --disable-indev=sndio --disable-outdev=sndio --cc=gcc --enable-fontconfig --enable-frei0r --enable-gnutls --enable-gmp --enable-libgme --enable-gray --enable-libaom --enable-libfribidi --enable-libass --enable-libvmaf --enable-libfreetype --enable-libmp3lame --enable-libopencore-amrnb --enable-libopencore-amrwb --enable-libopenjpeg --enable-librubberband --enable-libsoxr --enable-libspeex --enable-libsrt --enable-libvorbis --enable-libopus --enable-libtheora --enable-libvidstab --enable-libvo-amrwbenc --enable-libvpx --enable-libwebp --enable-libx264 --enable-libx265 --enable-libxml2 --enable-libdav1d --enable-libxvid --enable-libzvbi --enable-libzimg\r\n  libavutil      58.  2.100 / 58.  2.100\r\n  libavcodec     60.  3.100 / 60.  3.100\r\n  libavformat    60.  3.100 / 60.  3.100\r\n  libavdevice    60.  1.100 / 60.  1.100\r\n" ]
[ 36.47153, "o", "  libavfilter     9.  3.100 /  9.  3.100\r\n  libswscale      7.  1.100 /  7.  1.100\r\n  libswresample   4. 10.100 /  4. 10.100\r\n  libpostproc    57.  1.100 / 57.  1.100\r\n" ]
[ 36.47661, "o", "Input #0, mov,mp4,m4a,3gp,3g2,mj2, from 'test.mp4':\r\n  Metadata:\r\n    major_brand     : isom\r\n    minor_version   : 512\r\n    compatible_brands: isomiso2avc1mp41\r\n    creation_time   : 1970-01-01T00:00:00.000000Z\r\n    title           : Sintel Trailer\r\n    artist          : Durian Open Movie Team\r\n    encoder         : " ]
[ 36.47665, "o", "Lavf52.62.0\r\n    copyright       : (c) copyright Blender Foundation | durian.blender.org\r\n    description     : Trailer for the Sintel open movie project\r\n  Duration: " ]
[ 36.47669, "o", "00:00:52.21, start: 0.000000, bitrate: 669 kb/s" ]
[ 36.47671, "o", "\r\n" ]
[ 36.47680, "o", "  Stream #0:0[0x1](und): Video: h264 (High) (avc1 / 0x31637661), yuv420p(progressive), 854x480, 537 kb/s, 24 fps, 24 tbr, 24 tbn (default)\r\n    Metadata:\r\n      creation_time   : 1970-01-01T00:00:00.000000Z\r\n      handler_name    : VideoHandler\r\n      vendor_id       : [0][0][0][0]\r\n  Stream #0:1[0x2]" ]
[ 36.47681, "o", "(und): Audio: aac (LC) (mp4a / 0x6134706D), 48000 Hz, stereo, fltp, 126 kb/s (default)\r\n    Metadata:\r\n      creation_time   : " ]
[ 36.47684, "o", "1970-01-01T00:00:00.000000Z\r\n      handler_name    : " ]
[ 36.47684, "o", "SoundHandler\r\n" ]
[ 36.47685, "o", "      vendor_id       : " ]
[ 36.47687, "o", "[0][0][0][0]" ]
[ 36.47688, "o", "\r\n" ]
[ 36.47768, "o", "Stream mapping:\r\n  Stream #0:1 -> #0:0 (aac (native) -> mp3 (libmp3lame))\r\nPress [q] to stop, [?] for help\r\n" ]
[ 36.48097, "o", "Output #0, mp3, to 'test.mp3':\r\n  Metadata:\r\n    major_brand     : isom\r\n    minor_version   : 512\r\n    compatible_brands: isomiso2avc1mp41\r\n    description     : Trailer for the Sintel open movie project\r\n    TIT2            : Sintel Trailer\r\n    TPE1            : Durian Open Movie Team\r\n" ]
[ 36.48098, "o", "    TCOP            : (c) copyright Blender Foundation | durian.blender.org\r\n" ]
[ 36.48101, "o", "    TSSE            : " ]
[ 36.48103, "o", "Lavf60.3.100\r\n" ]
[ 36.48107, "o", "  Stream #0:0(und): Audio: mp3, 48000 Hz, stereo, fltp" ]
[ 36.48108, "o", " (default)\r\n    Metadata:\r\n      creation_time   : 1970-01-01T00:00:00.000000Z\r\n      handler_name    : SoundHandler\r\n" ]
[ 36.48108, "o", "      vendor_id       : " ]
[ 36.48113, "o", "[0][0][0][0]" ]
[ 36.48113, "o", "\r\n      encoder         : Lavc60.3.100 libmp3lame\r\n" ]
[ 36.48134, "o", "size=       0kB time=-577014:32:22.77 bitrate=  -0.0kbits/s speed=N/A    \r" ]
[ 36.97844, "o", "size=     256kB time=00:00:23.75 bitrate=  88.3kbits/s speed=47.5x    \r" ]
[ 37.47863, "o", "size=     512kB time=00:00:46.22 bitrate=  90.7kbits/s speed=46.2x    \r" ]
[ 37.58794, "o", "size=     812kB time=00:00:51.93 bitrate= 128.1kbits/s speed=46.8x    \r\nvideo:0kB audio:812kB subtitle:0kB other streams:0kB global headers:0kB muxing overhead: 0.063631%\r\n" ]
[ 37.58888, "o", "\u001b[?2004h\r\n" ]
[ 37.58889, "o", "\u001b[19491001\u001b[1;35m> \u001b[20210325\u001b[0m" ]
[ 42.97216, "o", "# " ]
[ 43.07672, "o", "查" ]
[ 43.23240, "o", "看" ]
[ 43.38842, "o", "音" ]
[ 43.54488, "o", "频" ]
[ 43.70015, "o", "文" ]
[ 43.85594, "o", "件" ]
[ 44.01227, "o", "信" ]
[ 44.16734, "o", "息" ]
[ 44.21973, "o", "\r\n\u001b[?2004l\r\u001b[?2004h\r\n" ]
[ 44.21975, "o", "\u001b[19491001\u001b[1;35m> \u001b[20210325\u001b[0m" ]
[ 45.72373, "o", "f" ]
[ 45.77609, "o", "f" ]
[ 45.82781, "o", "m" ]
[ 45.88009, "o", "p" ]
[ 45.93181, "o", "e" ]
[ 45.98402, "o", "g" ]
[ 46.03625, "o", " " ]
[ 46.08813, "o", "-" ]
[ 46.14033, "o", "i" ]
[ 46.19252, "o", " " ]
[ 46.24503, "o", "t" ]
[ 46.29689, "o", "e" ]
[ 46.34927, "o", "s" ]
[ 46.40181, "o", "t" ]
[ 46.45387, "o", "." ]
[ 46.50616, "o", "m" ]
[ 46.55877, "o", "p" ]
[ 46.61104, "o", "3" ]
[ 46.66295, "o", " " ]
[ 46.71510, "o", "-" ]
[ 46.76695, "o", "h" ]
[ 46.81910, "o", "i" ]
[ 46.87098, "o", "d" ]
[ 46.92321, "o", "e" ]
[ 46.97525, "o", "_" ]
[ 47.02769, "o", "b" ]
[ 47.07992, "o", "a" ]
[ 47.13224, "o", "n" ]
[ 47.18475, "o", "n" ]
[ 47.23743, "o", "e" ]
[ 47.28969, "o", "r" ]
[ 48.84388, "o", "\r\n\u001b[?2004l\r" ]
[ 48.84782, "o", "Input #0, mp3, from 'test.mp3':\r\n  Metadata:\r\n    major_brand     : isom\r\n    minor_version   : 512\r\n    compatible_brands: isomiso2avc1mp41\r\n    description     : Trailer for the Sintel open movie project\r\n    title           : Sintel Trailer\r\n    artist          : Durian Open Movie Team\r\n    copyright       : (c) copyright Blender Foundation | durian.blender.org\r\n    encoder         : Lavf60.3.100\r\n  Duration: 00:00:51.96, start: 0.023021, bitrate: 128 kb/s\r\n  Stream #0:0: Audio: mp3, 48000 Hz, stereo, fltp, 128 kb/s\r\n    Metadata:\r\n      encoder         : Lavc60.3.\r\n" ]
[ 48.84784, "o", "\u001b[4;31mAt least one output file must be specified\r\n\u001b[0m" ]
[ 48.84841, "o", "\u001b[?2004h\r\n\u001b[19491001\u001b[1;35m> \u001b[20210325\u001b[0m" ]
[ 56.89924, "o", "\u001b[?2004l\r\r\nexit\r\n" ]
